<?xml version="1.0" encoding="utf-8"?>
<!-- Generator: Adobe Illustrator 21.0.2, SVG Export Plug-In . SVG Version: 6.00 Build 0)  -->
<svg version="1.1" id="Ñëîé_1" xmlns="http://www.w3.org/2000/svg" xmlns:xlink="http://www.w3.org/1999/xlink" x="0px" y="0px"
	 viewBox="0 0 464 576.4" style="enable-background:new 0 0 464 576.4;" xml:space="preserve">
<g>
	<path d="M437.3,437.5c11.8-20.6,17.9-44.1,17.8-67.9l-0.8-140.5c0-1-0.2-1.9-0.7-2.8c-3.5-18.1-19.5-31.5-38.1-31.5
		c-0.1,0-0.2,0-0.2,0c-11.5,0.1-22,5.2-29.1,13.4c-5.1-14-17.9-24.5-33.1-25.8c-11.1-0.9-21.6,2.7-29.7,10.2c-1.1,1-2.2,2.1-3.1,3.3
		c-5.2-13.8-17.9-24-32.9-25.3c-11.1-0.9-21.6,2.7-29.7,10.2c-0.2,0.1-0.3,0.3-0.5,0.4l0.1-128.9c-0.1-21-16.2-38.5-36.5-39.7
		c-10.9-0.6-21.2,3.1-29.1,10.6c-7.8,7.4-12.2,17.7-12.1,28.4l0,163.5c0,0,0,0,0,0v0.1c-14.4,4.3-28.3,26.5-42.3,50.9
		c-1.6,2.7-4.8,11.9-5.3,20.7c-0.5,9,1.9,17.5,2.6,19.2c0,0,0,0.1,0,0.1c4.8,12.7,21.9,57.5,40.3,101c8.6,20.2,18.8,40.3,27,56.5
		c6.6,12.9,13.9,27.3,15.7,33.4c-3.7,1.3-6.4,4.8-6.4,8.9v49.2c0,5.7,4.6,10.3,10.3,10.3h197.9c5.7,0,10.3-4.6,10.3-10.3v-49.2
		c0-4.3-2.9-8-6.9-9.1v-2.6C422.7,474,427.7,454.4,437.3,437.5z M410.7,494.4v4.8c0,4.3,2.9,8,6.9,9.1v45.3H223.1v-45.3
		c4-1.1,6.9-4.8,6.9-9.1c0-6.2-5.7-17.6-17.5-40.9c-8.1-16-18.2-35.9-26.6-55.7c-18.3-43.3-35.3-87.9-40.1-100.6c0,0,0,0,0,0
		c-0.4-1.1-2.2-7.8-1.9-14.4c0.4-7,3.1-14.2,3.7-15.4c6.2-10.7,21.1-36.6,32-43.7v57.2c0,3.3,2.7,6,6,6c3.3,0,6-2.7,6-6v-65
		c0,0,0,0,0,0l0-168.9c0-7.5,2.9-14.5,8.4-19.6c5.4-5.2,12.6-7.8,20.1-7.3c14,0.8,25.1,13,25.2,27.7l-0.1,156.7c0,0.2,0,0.3,0,0.5
		c0,3.3,2.7,6,6,6c0,0,0,0,0,0c3.3,0,6-2.7,6-6v-0.4c0.1-7.4,3.2-14.5,8.6-19.5c5.6-5.2,12.9-7.7,20.6-7
		c13.7,1.1,24.4,13.1,24.5,27.3l0.1,11.5c0,3.3,2.7,6,6,6c0,0,0,0,0,0c3.3,0,6-2.7,6-6v0c0-7.5,3.1-14.8,8.6-19.9
		c5.6-5.2,12.9-7.7,20.6-7c13.7,1.1,24.4,13.1,24.5,27.3l0,7.8c0,1.6,0.7,3.1,1.8,4.2c1.1,1.1,2.6,1.7,4.2,1.7c0,0,0,0,0,0l0.3,0
		c3,0,5.5-2.3,5.9-5.2c1.7-13.3,13.1-23.3,26.5-23.4c0.1,0,0.1,0,0.2,0c13.3,0,24.7,9.9,26.6,23.1c0.1,0.4,0.1,0.7,0.3,1.1
		l0.8,138.6c0.1,21.7-5.5,43.1-16.2,61.9C416.3,450.2,410.7,471.9,410.7,494.4z"/>
	<path d="M431.9,80.9c0.2-0.3,0.3-0.6,0.5-0.9c0,0,0,0,0,0c0-0.1,0-0.1,0.1-0.2c0.1-0.3,0.2-0.6,0.2-0.8c0-0.1,0-0.2,0.1-0.3
		c0-0.2,0.1-0.5,0.1-0.7c0-0.1,0-0.2,0-0.3c0-0.3,0-0.6-0.1-0.9c0,0,0-0.1,0-0.1c-0.1-0.3-0.2-0.7-0.3-1c0-0.1-0.1-0.2-0.1-0.3
		c-0.1-0.2-0.2-0.5-0.4-0.7c-0.1-0.1-0.1-0.2-0.2-0.3c-0.2-0.3-0.4-0.6-0.7-0.8L392.6,35c-2.3-2.3-6.1-2.3-8.5,0
		c-2.3,2.3-2.3,6.1,0,8.5l28.3,28.3H310.9c-3.3,0-6,2.7-6,6s2.7,6,6,6h101.5L384.1,112c-2.3,2.3-2.3,6.1,0,8.5
		c1.2,1.2,2.7,1.8,4.2,1.8c1.5,0,3.1-0.6,4.2-1.8L431.1,82c0,0,0.1-0.1,0.1-0.1c0.2-0.2,0.4-0.4,0.5-0.6
		C431.8,81.1,431.9,81,431.9,80.9z"/>
	<path d="M9.8,80.9c-0.2-0.3-0.3-0.6-0.5-0.9c0,0,0,0,0,0c0-0.1,0-0.1-0.1-0.2C9.1,79.6,9.1,79.3,9,79c0-0.1,0-0.2-0.1-0.3
		c0-0.2-0.1-0.5-0.1-0.7c0-0.1,0-0.2,0-0.3c0-0.3,0-0.6,0.1-0.9c0,0,0-0.1,0-0.1c0.1-0.3,0.2-0.7,0.3-1c0-0.1,0.1-0.2,0.1-0.3
		c0.1-0.2,0.2-0.5,0.4-0.7c0.1-0.1,0.1-0.2,0.2-0.3c0.2-0.3,0.4-0.6,0.7-0.8L49.1,35c2.3-2.3,6.1-2.3,8.5,0c2.3,2.3,2.3,6.1,0,8.5
		L29.3,71.7h101.5c3.3,0,6,2.7,6,6s-2.7,6-6,6H29.3L57.6,112c2.3,2.3,2.3,6.1,0,8.5c-1.2,1.2-2.7,1.8-4.2,1.8
		c-1.5,0-3.1-0.6-4.2-1.8L10.6,82c0,0-0.1-0.1-0.1-0.1c-0.2-0.2-0.4-0.4-0.5-0.6C9.9,81.1,9.8,81,9.8,80.9z"/>
</g>
</svg>
